<svg xmlns="http://www.w3.org/2000/svg" xmlns:xlink="http://www.w3.org/1999/xlink" width="190" zoomAndPan="magnify" viewBox="0 0 142.5 30.000001" height="40" preserveAspectRatio="xMidYMid meet" version="1.0"><defs><g/><clipPath id="6d8296e647"><path d="M 2.054688 0 L 139.960938 0 L 139.960938 29.03125 L 2.054688 29.03125 Z M 2.054688 0 " clip-rule="nonzero"/></clipPath><clipPath id="566730b821"><path d="M 2.054688 0 L 31.089844 0 L 31.089844 29.03125 L 2.054688 29.03125 Z M 2.054688 0 " clip-rule="nonzero"/></clipPath><clipPath id="4ba4d4b213"><path d="M 16.574219 0 C 8.554688 0 2.054688 6.5 2.054688 14.515625 C 2.054688 22.53125 8.554688 29.03125 16.574219 29.03125 C 24.589844 29.03125 31.089844 22.53125 31.089844 14.515625 C 31.089844 6.5 24.589844 0 16.574219 0 Z M 16.574219 0 " clip-rule="nonzero"/></clipPath><linearGradient x1="-0" gradientTransform="matrix(0.113407, 0, 0, 0.113407, 2.056449, 0.00000193548)" y1="128" x2="255.999991" gradientUnits="userSpaceOnUse" y2="128" id="94899977a1"><stop stop-opacity="1" stop-color="rgb(30.599976%, 41.999817%, 100%)" offset="0"/><stop stop-opacity="1" stop-color="rgb(30.870056%, 41.990662%, 99.908447%)" offset="0.00390625"/><stop stop-opacity="1" stop-color="rgb(31.141663%, 41.983032%, 99.81842%)" offset="0.0078125"/><stop stop-opacity="1" stop-color="rgb(31.411743%, 41.975403%, 99.728394%)" offset="0.0117188"/><stop stop-opacity="1" stop-color="rgb(31.68335%, 41.967773%, 99.638367%)" offset="0.015625"/><stop stop-opacity="1" stop-color="rgb(31.95343%, 41.960144%, 99.54834%)" offset="0.0195312"/><stop stop-opacity="1" stop-color="rgb(32.225037%, 41.952515%, 99.458313%)" offset="0.0234375"/><stop stop-opacity="1" stop-color="rgb(32.496643%, 41.944885%, 99.36676%)" offset="0.0273437"/><stop stop-opacity="1" stop-color="rgb(32.76825%, 41.937256%, 99.276733%)" offset="0.03125"/><stop stop-opacity="1" stop-color="rgb(33.03833%, 41.928101%, 99.186707%)" offset="0.0351562"/><stop stop-opacity="1" stop-color="rgb(33.309937%, 41.920471%, 99.09668%)" offset="0.0390625"/><stop stop-opacity="1" stop-color="rgb(33.580017%, 41.912842%, 99.006653%)" offset="0.0429688"/><stop stop-opacity="1" stop-color="rgb(33.851624%, 41.905212%, 98.916626%)" offset="0.046875"/><stop stop-opacity="1" stop-color="rgb(34.12323%, 41.897583%, 98.826599%)" offset="0.0507812"/><stop stop-opacity="1" stop-color="rgb(34.394836%, 41.889954%, 98.736572%)" offset="0.0546875"/><stop stop-opacity="1" stop-color="rgb(34.664917%, 41.882324%, 98.64502%)" offset="0.0585937"/><stop stop-opacity="1" stop-color="rgb(34.936523%, 41.874695%, 98.554993%)" offset="0.0625"/><stop stop-opacity="1" stop-color="rgb(35.206604%, 41.86554%, 98.464966%)" offset="0.0664062"/><stop stop-opacity="1" stop-color="rgb(35.47821%, 41.85791%, 98.374939%)" offset="0.0703125"/><stop stop-opacity="1" stop-color="rgb(35.749817%, 41.850281%, 98.284912%)" offset="0.0742188"/><stop stop-opacity="1" stop-color="rgb(36.021423%, 41.842651%, 98.194885%)" offset="0.078125"/><stop stop-opacity="1" stop-color="rgb(36.291504%, 41.835022%, 98.104858%)" offset="0.0820312"/><stop stop-opacity="1" stop-color="rgb(36.56311%, 41.827393%, 98.014832%)" offset="0.0859375"/><stop stop-opacity="1" stop-color="rgb(36.833191%, 41.819763%, 97.923279%)" offset="0.0898438"/><stop stop-opacity="1" stop-color="rgb(37.104797%, 41.812134%, 97.833252%)" offset="0.09375"/><stop stop-opacity="1" stop-color="rgb(37.376404%, 41.804504%, 97.743225%)" offset="0.0976562"/><stop stop-opacity="1" stop-color="rgb(37.64801%, 41.796875%, 97.653198%)" offset="0.101562"/><stop stop-opacity="1" stop-color="rgb(37.918091%, 41.78772%, 97.563171%)" offset="0.105469"/><stop stop-opacity="1" stop-color="rgb(38.189697%, 41.78009%, 97.473145%)" offset="0.109375"/><stop stop-opacity="1" stop-color="rgb(38.459778%, 41.772461%, 97.381592%)" offset="0.113281"/><stop stop-opacity="1" stop-color="rgb(38.731384%, 41.764832%, 97.291565%)" offset="0.117187"/><stop stop-opacity="1" stop-color="rgb(39.002991%, 41.757202%, 97.201538%)" offset="0.121094"/><stop stop-opacity="1" stop-color="rgb(39.274597%, 41.749573%, 97.111511%)" offset="0.125"/><stop stop-opacity="1" stop-color="rgb(39.544678%, 41.741943%, 97.021484%)" offset="0.128906"/><stop stop-opacity="1" stop-color="rgb(39.816284%, 41.734314%, 96.931458%)" offset="0.132812"/><stop stop-opacity="1" stop-color="rgb(40.086365%, 41.725159%, 96.841431%)" offset="0.136719"/><stop stop-opacity="1" stop-color="rgb(40.357971%, 41.717529%, 96.751404%)" offset="0.140625"/><stop stop-opacity="1" stop-color="rgb(40.629578%, 41.7099%, 96.659851%)" offset="0.144531"/><stop stop-opacity="1" stop-color="rgb(40.901184%, 41.702271%, 96.569824%)" offset="0.148438"/><stop stop-opacity="1" stop-color="rgb(41.171265%, 41.694641%, 96.479797%)" offset="0.152344"/><stop stop-opacity="1" stop-color="rgb(41.442871%, 41.687012%, 96.389771%)" offset="0.15625"/><stop stop-opacity="1" stop-color="rgb(41.712952%, 41.679382%, 96.299744%)" offset="0.160156"/><stop stop-opacity="1" stop-color="rgb(41.984558%, 41.671753%, 96.209717%)" offset="0.164062"/><stop stop-opacity="1" stop-color="rgb(42.256165%, 41.662598%, 96.11969%)" offset="0.167969"/><stop stop-opacity="1" stop-color="rgb(42.527771%, 41.654968%, 96.029663%)" offset="0.171875"/><stop stop-opacity="1" stop-color="rgb(42.797852%, 41.647339%, 95.93811%)" offset="0.175781"/><stop stop-opacity="1" stop-color="rgb(43.069458%, 41.639709%, 95.848083%)" offset="0.179688"/><stop stop-opacity="1" stop-color="rgb(43.339539%, 41.63208%, 95.758057%)" offset="0.183594"/><stop stop-opacity="1" stop-color="rgb(43.611145%, 41.624451%, 95.66803%)" offset="0.1875"/><stop stop-opacity="1" stop-color="rgb(43.882751%, 41.616821%, 95.578003%)" offset="0.191406"/><stop stop-opacity="1" stop-color="rgb(44.154358%, 41.609192%, 95.487976%)" offset="0.195312"/><stop stop-opacity="1" stop-color="rgb(44.424438%, 41.600037%, 95.396423%)" offset="0.199219"/><stop stop-opacity="1" stop-color="rgb(44.696045%, 41.592407%, 95.306396%)" offset="0.203125"/><stop stop-opacity="1" stop-color="rgb(44.966125%, 41.584778%, 95.21637%)" offset="0.207031"/><stop stop-opacity="1" stop-color="rgb(45.237732%, 41.577148%, 95.126343%)" offset="0.210937"/><stop stop-opacity="1" stop-color="rgb(45.509338%, 41.569519%, 95.036316%)" offset="0.214844"/><stop stop-opacity="1" stop-color="rgb(45.780945%, 41.56189%, 94.946289%)" offset="0.21875"/><stop stop-opacity="1" stop-color="rgb(46.051025%, 41.55426%, 94.856262%)" offset="0.222656"/><stop stop-opacity="1" stop-color="rgb(46.322632%, 41.546631%, 94.766235%)" offset="0.226562"/><stop stop-opacity="1" stop-color="rgb(46.592712%, 41.537476%, 94.674683%)" offset="0.230469"/><stop stop-opacity="1" stop-color="rgb(46.864319%, 41.529846%, 94.584656%)" offset="0.234375"/><stop stop-opacity="1" stop-color="rgb(47.135925%, 41.522217%, 94.494629%)" offset="0.238281"/><stop stop-opacity="1" stop-color="rgb(47.407532%, 41.514587%, 94.404602%)" offset="0.242187"/><stop stop-opacity="1" stop-color="rgb(47.677612%, 41.506958%, 94.314575%)" offset="0.246094"/><stop stop-opacity="1" stop-color="rgb(47.949219%, 41.499329%, 94.224548%)" offset="0.25"/><stop stop-opacity="1" stop-color="rgb(48.219299%, 41.491699%, 94.134521%)" offset="0.253906"/><stop stop-opacity="1" stop-color="rgb(48.490906%, 41.48407%, 94.044495%)" offset="0.257812"/><stop stop-opacity="1" stop-color="rgb(48.762512%, 41.474915%, 93.952942%)" offset="0.261719"/><stop stop-opacity="1" stop-color="rgb(49.034119%, 41.467285%, 93.862915%)" offset="0.265625"/><stop stop-opacity="1" stop-color="rgb(49.304199%, 41.459656%, 93.772888%)" offset="0.269531"/><stop stop-opacity="1" stop-color="rgb(49.575806%, 41.452026%, 93.682861%)" offset="0.273438"/><stop stop-opacity="1" stop-color="rgb(49.845886%, 41.444397%, 93.592834%)" offset="0.277344"/><stop stop-opacity="1" stop-color="rgb(50.117493%, 41.436768%, 93.502808%)" offset="0.28125"/><stop stop-opacity="1" stop-color="rgb(50.389099%, 41.429138%, 93.411255%)" offset="0.285156"/><stop stop-opacity="1" stop-color="rgb(50.660706%, 41.421509%, 93.321228%)" offset="0.289062"/><stop stop-opacity="1" stop-color="rgb(50.930786%, 41.413879%, 93.231201%)" offset="0.292969"/><stop stop-opacity="1" stop-color="rgb(51.202393%, 41.40625%, 93.141174%)" offset="0.296875"/><stop stop-opacity="1" stop-color="rgb(51.472473%, 41.397095%, 93.051147%)" offset="0.300781"/><stop stop-opacity="1" stop-color="rgb(51.74408%, 41.389465%, 92.961121%)" offset="0.304688"/><stop stop-opacity="1" stop-color="rgb(52.015686%, 41.381836%, 92.871094%)" offset="0.308594"/><stop stop-opacity="1" stop-color="rgb(52.287292%, 41.374207%, 92.781067%)" offset="0.3125"/><stop stop-opacity="1" stop-color="rgb(52.557373%, 41.366577%, 92.689514%)" offset="0.316406"/><stop stop-opacity="1" stop-color="rgb(52.828979%, 41.358948%, 92.599487%)" offset="0.320312"/><stop stop-opacity="1" stop-color="rgb(53.09906%, 41.351318%, 92.50946%)" offset="0.324219"/><stop stop-opacity="1" stop-color="rgb(53.370667%, 41.343689%, 92.419434%)" offset="0.328125"/><stop stop-opacity="1" stop-color="rgb(53.642273%, 41.334534%, 92.329407%)" offset="0.332031"/><stop stop-opacity="1" stop-color="rgb(53.913879%, 41.326904%, 92.23938%)" offset="0.335938"/><stop stop-opacity="1" stop-color="rgb(54.18396%, 41.319275%, 92.149353%)" offset="0.339844"/><stop stop-opacity="1" stop-color="rgb(54.455566%, 41.311646%, 92.059326%)" offset="0.34375"/><stop stop-opacity="1" stop-color="rgb(54.725647%, 41.304016%, 91.967773%)" offset="0.347656"/><stop stop-opacity="1" stop-color="rgb(54.997253%, 41.296387%, 91.877747%)" offset="0.351562"/><stop stop-opacity="1" stop-color="rgb(55.26886%, 41.288757%, 91.78772%)" offset="0.355469"/><stop stop-opacity="1" stop-color="rgb(55.540466%, 41.281128%, 91.697693%)" offset="0.359375"/><stop stop-opacity="1" stop-color="rgb(55.810547%, 41.271973%, 91.607666%)" offset="0.363281"/><stop stop-opacity="1" stop-color="rgb(56.082153%, 41.264343%, 91.517639%)" offset="0.367188"/><stop stop-opacity="1" stop-color="rgb(56.352234%, 41.256714%, 91.426086%)" offset="0.371094"/><stop stop-opacity="1" stop-color="rgb(56.62384%, 41.249084%, 91.33606%)" offset="0.375"/><stop stop-opacity="1" stop-color="rgb(56.895447%, 41.241455%, 91.246033%)" offset="0.378906"/><stop stop-opacity="1" stop-color="rgb(57.167053%, 41.233826%, 91.156006%)" offset="0.382812"/><stop stop-opacity="1" stop-color="rgb(57.437134%, 41.226196%, 91.065979%)" offset="0.386719"/><stop stop-opacity="1" stop-color="rgb(57.70874%, 41.218567%, 90.975952%)" offset="0.390625"/><stop stop-opacity="1" stop-color="rgb(57.978821%, 41.209412%, 90.885925%)" offset="0.394531"/><stop stop-opacity="1" stop-color="rgb(58.250427%, 41.201782%, 90.795898%)" offset="0.398438"/><stop stop-opacity="1" stop-color="rgb(58.522034%, 41.194153%, 90.704346%)" offset="0.402344"/><stop stop-opacity="1" stop-color="rgb(58.79364%, 41.186523%, 90.614319%)" offset="0.40625"/><stop stop-opacity="1" stop-color="rgb(59.063721%, 41.178894%, 90.524292%)" offset="0.410156"/><stop stop-opacity="1" stop-color="rgb(59.335327%, 41.171265%, 90.434265%)" offset="0.414062"/><stop stop-opacity="1" stop-color="rgb(59.605408%, 41.163635%, 90.344238%)" offset="0.417969"/><stop stop-opacity="1" stop-color="rgb(59.877014%, 41.156006%, 90.254211%)" offset="0.421875"/><stop stop-opacity="1" stop-color="rgb(60.148621%, 41.146851%, 90.164185%)" offset="0.425781"/><stop stop-opacity="1" stop-color="rgb(60.420227%, 41.139221%, 90.074158%)" offset="0.429687"/><stop stop-opacity="1" stop-color="rgb(60.690308%, 41.131592%, 89.982605%)" offset="0.433594"/><stop stop-opacity="1" stop-color="rgb(60.961914%, 41.123962%, 89.892578%)" offset="0.4375"/><stop stop-opacity="1" stop-color="rgb(61.231995%, 41.116333%, 89.802551%)" offset="0.441406"/><stop stop-opacity="1" stop-color="rgb(61.503601%, 41.108704%, 89.712524%)" offset="0.445312"/><stop stop-opacity="1" stop-color="rgb(61.775208%, 41.101074%, 89.622498%)" offset="0.449219"/><stop stop-opacity="1" stop-color="rgb(62.046814%, 41.093445%, 89.532471%)" offset="0.453125"/><stop stop-opacity="1" stop-color="rgb(62.316895%, 41.08429%, 89.440918%)" offset="0.457031"/><stop stop-opacity="1" stop-color="rgb(62.588501%, 41.07666%, 89.350891%)" offset="0.460937"/><stop stop-opacity="1" stop-color="rgb(62.858582%, 41.069031%, 89.260864%)" offset="0.464844"/><stop stop-opacity="1" stop-color="rgb(63.130188%, 41.061401%, 89.170837%)" offset="0.46875"/><stop stop-opacity="1" stop-color="rgb(63.401794%, 41.053772%, 89.080811%)" offset="0.472656"/><stop stop-opacity="1" stop-color="rgb(63.673401%, 41.046143%, 88.990784%)" offset="0.476562"/><stop stop-opacity="1" stop-color="rgb(63.943481%, 41.038513%, 88.900757%)" offset="0.480469"/><stop stop-opacity="1" stop-color="rgb(64.215088%, 41.030884%, 88.81073%)" offset="0.484375"/><stop stop-opacity="1" stop-color="rgb(64.485168%, 41.023254%, 88.719177%)" offset="0.488281"/><stop stop-opacity="1" stop-color="rgb(64.756775%, 41.015625%, 88.62915%)" offset="0.492187"/><stop stop-opacity="1" stop-color="rgb(65.028381%, 41.00647%, 88.539124%)" offset="0.496094"/><stop stop-opacity="1" stop-color="rgb(65.299988%, 40.99884%, 88.449097%)" offset="0.5"/><stop stop-opacity="1" stop-color="rgb(65.570068%, 40.991211%, 88.35907%)" offset="0.503906"/><stop stop-opacity="1" stop-color="rgb(65.841675%, 40.983582%, 88.269043%)" offset="0.507812"/><stop stop-opacity="1" stop-color="rgb(66.111755%, 40.975952%, 88.179016%)" offset="0.511719"/><stop stop-opacity="1" stop-color="rgb(66.383362%, 40.968323%, 88.088989%)" offset="0.515625"/><stop stop-opacity="1" stop-color="rgb(66.653442%, 40.960693%, 87.997437%)" offset="0.519531"/><stop stop-opacity="1" stop-color="rgb(66.925049%, 40.953064%, 87.90741%)" offset="0.523438"/><stop stop-opacity="1" stop-color="rgb(67.196655%, 40.943909%, 87.817383%)" offset="0.527344"/><stop stop-opacity="1" stop-color="rgb(67.468262%, 40.936279%, 87.727356%)" offset="0.53125"/><stop stop-opacity="1" stop-color="rgb(67.738342%, 40.92865%, 87.637329%)" offset="0.535156"/><stop stop-opacity="1" stop-color="rgb(68.009949%, 40.921021%, 87.547302%)" offset="0.539062"/><stop stop-opacity="1" stop-color="rgb(68.280029%, 40.913391%, 87.45575%)" offset="0.542969"/><stop stop-opacity="1" stop-color="rgb(68.551636%, 40.905762%, 87.365723%)" offset="0.546875"/><stop stop-opacity="1" stop-color="rgb(68.823242%, 40.898132%, 87.275696%)" offset="0.550781"/><stop stop-opacity="1" stop-color="rgb(69.094849%, 40.890503%, 87.185669%)" offset="0.554688"/><stop stop-opacity="1" stop-color="rgb(69.364929%, 40.881348%, 87.095642%)" offset="0.558594"/><stop stop-opacity="1" stop-color="rgb(69.636536%, 40.873718%, 87.005615%)" offset="0.5625"/><stop stop-opacity="1" stop-color="rgb(69.906616%, 40.866089%, 86.915588%)" offset="0.566406"/><stop stop-opacity="1" stop-color="rgb(70.178223%, 40.858459%, 86.825562%)" offset="0.570312"/><stop stop-opacity="1" stop-color="rgb(70.449829%, 40.85083%, 86.734009%)" offset="0.574219"/><stop stop-opacity="1" stop-color="rgb(70.721436%, 40.843201%, 86.643982%)" offset="0.578125"/><stop stop-opacity="1" stop-color="rgb(70.991516%, 40.835571%, 86.553955%)" offset="0.582031"/><stop stop-opacity="1" stop-color="rgb(71.263123%, 40.827942%, 86.463928%)" offset="0.585938"/><stop stop-opacity="1" stop-color="rgb(71.533203%, 40.818787%, 86.373901%)" offset="0.589844"/><stop stop-opacity="1" stop-color="rgb(71.80481%, 40.811157%, 86.283875%)" offset="0.59375"/><stop stop-opacity="1" stop-color="rgb(72.076416%, 40.803528%, 86.193848%)" offset="0.597656"/><stop stop-opacity="1" stop-color="rgb(72.348022%, 40.795898%, 86.103821%)" offset="0.601562"/><stop stop-opacity="1" stop-color="rgb(72.618103%, 40.788269%, 86.012268%)" offset="0.605469"/><stop stop-opacity="1" stop-color="rgb(72.889709%, 40.78064%, 85.922241%)" offset="0.609375"/><stop stop-opacity="1" stop-color="rgb(73.15979%, 40.77301%, 85.832214%)" offset="0.613281"/><stop stop-opacity="1" stop-color="rgb(73.431396%, 40.765381%, 85.742188%)" offset="0.617188"/><stop stop-opacity="1" stop-color="rgb(73.703003%, 40.756226%, 85.652161%)" offset="0.621094"/><stop stop-opacity="1" stop-color="rgb(73.974609%, 40.748596%, 85.562134%)" offset="0.625"/><stop stop-opacity="1" stop-color="rgb(74.24469%, 40.740967%, 85.470581%)" offset="0.628906"/><stop stop-opacity="1" stop-color="rgb(74.516296%, 40.733337%, 85.380554%)" offset="0.632812"/><stop stop-opacity="1" stop-color="rgb(74.786377%, 40.725708%, 85.290527%)" offset="0.636719"/><stop stop-opacity="1" stop-color="rgb(75.057983%, 40.718079%, 85.2005%)" offset="0.640625"/><stop stop-opacity="1" stop-color="rgb(75.32959%, 40.710449%, 85.110474%)" offset="0.644531"/><stop stop-opacity="1" stop-color="rgb(75.601196%, 40.70282%, 85.020447%)" offset="0.648438"/><stop stop-opacity="1" stop-color="rgb(75.871277%, 40.693665%, 84.93042%)" offset="0.652344"/><stop stop-opacity="1" stop-color="rgb(76.142883%, 40.686035%, 84.840393%)" offset="0.65625"/><stop stop-opacity="1" stop-color="rgb(76.412964%, 40.678406%, 84.74884%)" offset="0.660156"/><stop stop-opacity="1" stop-color="rgb(76.68457%, 40.670776%, 84.658813%)" offset="0.664062"/><stop stop-opacity="1" stop-color="rgb(76.956177%, 40.663147%, 84.568787%)" offset="0.667969"/><stop stop-opacity="1" stop-color="rgb(77.227783%, 40.655518%, 84.47876%)" offset="0.671875"/><stop stop-opacity="1" stop-color="rgb(77.497864%, 40.647888%, 84.388733%)" offset="0.675781"/><stop stop-opacity="1" stop-color="rgb(77.76947%, 40.640259%, 84.298706%)" offset="0.679688"/><stop stop-opacity="1" stop-color="rgb(78.039551%, 40.632629%, 84.208679%)" offset="0.683594"/><stop stop-opacity="1" stop-color="rgb(78.311157%, 40.625%, 84.118652%)" offset="0.6875"/><stop stop-opacity="1" stop-color="rgb(78.582764%, 40.615845%, 84.0271%)" offset="0.691406"/><stop stop-opacity="1" stop-color="rgb(78.85437%, 40.608215%, 83.937073%)" offset="0.695312"/><stop stop-opacity="1" stop-color="rgb(79.124451%, 40.600586%, 83.847046%)" offset="0.699219"/><stop stop-opacity="1" stop-color="rgb(79.396057%, 40.592957%, 83.757019%)" offset="0.703125"/><stop stop-opacity="1" stop-color="rgb(79.666138%, 40.585327%, 83.666992%)" offset="0.707031"/><stop stop-opacity="1" stop-color="rgb(79.937744%, 40.577698%, 83.576965%)" offset="0.710938"/><stop stop-opacity="1" stop-color="rgb(80.209351%, 40.570068%, 83.485413%)" offset="0.714844"/><stop stop-opacity="1" stop-color="rgb(80.480957%, 40.562439%, 83.395386%)" offset="0.71875"/><stop stop-opacity="1" stop-color="rgb(80.751038%, 40.553284%, 83.305359%)" offset="0.722656"/><stop stop-opacity="1" stop-color="rgb(81.022644%, 40.545654%, 83.215332%)" offset="0.726562"/><stop stop-opacity="1" stop-color="rgb(81.292725%, 40.538025%, 83.125305%)" offset="0.730469"/><stop stop-opacity="1" stop-color="rgb(81.564331%, 40.530396%, 83.035278%)" offset="0.734375"/><stop stop-opacity="1" stop-color="rgb(81.835938%, 40.522766%, 82.945251%)" offset="0.738281"/><stop stop-opacity="1" stop-color="rgb(82.107544%, 40.515137%, 82.855225%)" offset="0.742188"/><stop stop-opacity="1" stop-color="rgb(82.377625%, 40.507507%, 82.763672%)" offset="0.746094"/><stop stop-opacity="1" stop-color="rgb(82.649231%, 40.499878%, 82.673645%)" offset="0.75"/><stop stop-opacity="1" stop-color="rgb(82.919312%, 40.490723%, 82.583618%)" offset="0.753906"/><stop stop-opacity="1" stop-color="rgb(83.190918%, 40.483093%, 82.493591%)" offset="0.757812"/><stop stop-opacity="1" stop-color="rgb(83.462524%, 40.475464%, 82.403564%)" offset="0.761719"/><stop stop-opacity="1" stop-color="rgb(83.734131%, 40.467834%, 82.313538%)" offset="0.765625"/><stop stop-opacity="1" stop-color="rgb(84.004211%, 40.460205%, 82.223511%)" offset="0.769531"/><stop stop-opacity="1" stop-color="rgb(84.275818%, 40.452576%, 82.133484%)" offset="0.773438"/><stop stop-opacity="1" stop-color="rgb(84.545898%, 40.444946%, 82.041931%)" offset="0.777344"/><stop stop-opacity="1" stop-color="rgb(84.817505%, 40.437317%, 81.951904%)" offset="0.78125"/><stop stop-opacity="1" stop-color="rgb(85.089111%, 40.428162%, 81.861877%)" offset="0.785156"/><stop stop-opacity="1" stop-color="rgb(85.360718%, 40.420532%, 81.771851%)" offset="0.789062"/><stop stop-opacity="1" stop-color="rgb(85.630798%, 40.412903%, 81.681824%)" offset="0.792969"/><stop stop-opacity="1" stop-color="rgb(85.902405%, 40.405273%, 81.591797%)" offset="0.796875"/><stop stop-opacity="1" stop-color="rgb(86.172485%, 40.397644%, 81.500244%)" offset="0.800781"/><stop stop-opacity="1" stop-color="rgb(86.444092%, 40.390015%, 81.410217%)" offset="0.804688"/><stop stop-opacity="1" stop-color="rgb(86.715698%, 40.382385%, 81.32019%)" offset="0.808594"/><stop stop-opacity="1" stop-color="rgb(86.987305%, 40.374756%, 81.230164%)" offset="0.8125"/><stop stop-opacity="1" stop-color="rgb(87.257385%, 40.365601%, 81.140137%)" offset="0.816406"/><stop stop-opacity="1" stop-color="rgb(87.528992%, 40.357971%, 81.05011%)" offset="0.820312"/><stop stop-opacity="1" stop-color="rgb(87.799072%, 40.350342%, 80.960083%)" offset="0.824219"/><stop stop-opacity="1" stop-color="rgb(88.070679%, 40.342712%, 80.870056%)" offset="0.828125"/><stop stop-opacity="1" stop-color="rgb(88.342285%, 40.335083%, 80.778503%)" offset="0.832031"/><stop stop-opacity="1" stop-color="rgb(88.613892%, 40.327454%, 80.688477%)" offset="0.835937"/><stop stop-opacity="1" stop-color="rgb(88.883972%, 40.319824%, 80.59845%)" offset="0.839844"/><stop stop-opacity="1" stop-color="rgb(89.155579%, 40.312195%, 80.508423%)" offset="0.84375"/><stop stop-opacity="1" stop-color="rgb(89.425659%, 40.30304%, 80.418396%)" offset="0.847656"/><stop stop-opacity="1" stop-color="rgb(89.697266%, 40.29541%, 80.328369%)" offset="0.851562"/><stop stop-opacity="1" stop-color="rgb(89.968872%, 40.287781%, 80.238342%)" offset="0.855469"/><stop stop-opacity="1" stop-color="rgb(90.240479%, 40.280151%, 80.148315%)" offset="0.859375"/><stop stop-opacity="1" stop-color="rgb(90.510559%, 40.272522%, 80.056763%)" offset="0.863281"/><stop stop-opacity="1" stop-color="rgb(90.782166%, 40.264893%, 79.966736%)" offset="0.867187"/><stop stop-opacity="1" stop-color="rgb(91.052246%, 40.257263%, 79.876709%)" offset="0.871094"/><stop stop-opacity="1" stop-color="rgb(91.323853%, 40.249634%, 79.786682%)" offset="0.875"/><stop stop-opacity="1" stop-color="rgb(91.595459%, 40.242004%, 79.696655%)" offset="0.878906"/><stop stop-opacity="1" stop-color="rgb(91.867065%, 40.234375%, 79.606628%)" offset="0.882812"/><stop stop-opacity="1" stop-color="rgb(92.137146%, 40.22522%, 79.515076%)" offset="0.886719"/><stop stop-opacity="1" stop-color="rgb(92.408752%, 40.21759%, 79.425049%)" offset="0.890625"/><stop stop-opacity="1" stop-color="rgb(92.678833%, 40.209961%, 79.335022%)" offset="0.894531"/><stop stop-opacity="1" stop-color="rgb(92.950439%, 40.202332%, 79.244995%)" offset="0.898437"/><stop stop-opacity="1" stop-color="rgb(93.222046%, 40.194702%, 79.154968%)" offset="0.902344"/><stop stop-opacity="1" stop-color="rgb(93.493652%, 40.187073%, 79.064941%)" offset="0.90625"/><stop stop-opacity="1" stop-color="rgb(93.763733%, 40.179443%, 78.974915%)" offset="0.910156"/><stop stop-opacity="1" stop-color="rgb(94.035339%, 40.171814%, 78.884888%)" offset="0.914062"/><stop stop-opacity="1" stop-color="rgb(94.30542%, 40.162659%, 78.793335%)" offset="0.917969"/><stop stop-opacity="1" stop-color="rgb(94.577026%, 40.155029%, 78.703308%)" offset="0.921875"/><stop stop-opacity="1" stop-color="rgb(94.848633%, 40.1474%, 78.613281%)" offset="0.925781"/><stop stop-opacity="1" stop-color="rgb(95.120239%, 40.139771%, 78.523254%)" offset="0.929687"/><stop stop-opacity="1" stop-color="rgb(95.39032%, 40.132141%, 78.433228%)" offset="0.933594"/><stop stop-opacity="1" stop-color="rgb(95.661926%, 40.124512%, 78.343201%)" offset="0.9375"/><stop stop-opacity="1" stop-color="rgb(95.932007%, 40.116882%, 78.253174%)" offset="0.941406"/><stop stop-opacity="1" stop-color="rgb(96.203613%, 40.109253%, 78.163147%)" offset="0.945312"/><stop stop-opacity="1" stop-color="rgb(96.47522%, 40.100098%, 78.071594%)" offset="0.949219"/><stop stop-opacity="1" stop-color="rgb(96.746826%, 40.092468%, 77.981567%)" offset="0.953125"/><stop stop-opacity="1" stop-color="rgb(97.016907%, 40.084839%, 77.891541%)" offset="0.957031"/><stop stop-opacity="1" stop-color="rgb(97.288513%, 40.077209%, 77.801514%)" offset="0.960937"/><stop stop-opacity="1" stop-color="rgb(97.558594%, 40.06958%, 77.711487%)" offset="0.964844"/><stop stop-opacity="1" stop-color="rgb(97.8302%, 40.061951%, 77.62146%)" offset="0.96875"/><stop stop-opacity="1" stop-color="rgb(98.101807%, 40.054321%, 77.531433%)" offset="0.972656"/><stop stop-opacity="1" stop-color="rgb(98.373413%, 40.046692%, 77.441406%)" offset="0.976562"/><stop stop-opacity="1" stop-color="rgb(98.643494%, 40.037537%, 77.349854%)" offset="0.980469"/><stop stop-opacity="1" stop-color="rgb(98.9151%, 40.029907%, 77.259827%)" offset="0.984375"/><stop stop-opacity="1" stop-color="rgb(99.185181%, 40.022278%, 77.1698%)" offset="0.988281"/><stop stop-opacity="1" stop-color="rgb(99.456787%, 40.014648%, 77.079773%)" offset="0.992188"/><stop stop-opacity="1" stop-color="rgb(99.726868%, 40.007019%, 76.989746%)" offset="0.996094"/><stop stop-opacity="1" stop-color="rgb(99.998474%, 39.99939%, 76.899719%)" offset="1"/></linearGradient><clipPath id="91796a8230"><path d="M 3.070312 0 L 31.089844 0 L 31.089844 28.015625 L 3.070312 28.015625 Z M 3.070312 0 " clip-rule="nonzero"/></clipPath><clipPath id="03d67bca53"><path d="M 17.078125 0 C 24.816406 0 31.089844 6.273438 31.089844 14.007812 C 31.089844 21.746094 24.816406 28.015625 17.078125 28.015625 C 9.34375 28.015625 3.070312 21.746094 3.070312 14.007812 C 3.070312 6.273438 9.34375 0 17.078125 0 Z M 17.078125 0 " clip-rule="nonzero"/></clipPath><clipPath id="52ededbdb4"><path d="M 7.816406 5.625 L 26.40625 5.625 L 26.40625 22.390625 L 7.816406 22.390625 Z M 7.816406 5.625 " clip-rule="nonzero"/></clipPath></defs><g clip-path="url(#6d8296e647)"><path fill="#ffffff" d="M 2.054688 0 L 139.960938 0 L 139.960938 29.03125 L 2.054688 29.03125 Z M 2.054688 0 " fill-opacity="1" fill-rule="nonzero"/><path fill="#ffffff" d="M 2.054688 0 L 139.960938 0 L 139.960938 29.03125 L 2.054688 29.03125 Z M 2.054688 0 " fill-opacity="1" fill-rule="nonzero"/></g><g clip-path="url(#566730b821)"><g clip-path="url(#4ba4d4b213)"><path fill="url(#94899977a1)" d="M 2.054688 0 L 2.054688 29.03125 L 31.089844 29.03125 L 31.089844 0 Z M 2.054688 0 " fill-rule="nonzero"/></g></g><g clip-path="url(#91796a8230)"><g clip-path="url(#03d67bca53)"><path stroke-linecap="butt" transform="matrix(0.364517, 0, 0, 0.364517, 3.071623, 0.00000193548)" fill="none" stroke-linejoin="miter" d="M 38.424789 -0.00000530972 C 59.653632 -0.00000530972 76.86389 17.210253 76.86389 38.428379 C 76.86389 59.657222 59.653632 76.856764 38.424789 76.856764 C 17.206662 76.856764 -0.00359582 59.657222 -0.00359582 38.428379 C -0.00359582 17.210253 17.206662 -0.00000530972 38.424789 -0.00000530972 Z M 38.424789 -0.00000530972 " stroke="#000000" stroke-width="7.964575" stroke-opacity="1" stroke-miterlimit="4"/></g></g><g clip-path="url(#52ededbdb4)"><path fill="#000000" d="M 21.539062 7.390625 L 17.554688 7.390625 L 17.554688 6.066406 C 17.554688 5.945312 17.511719 5.839844 17.425781 5.753906 C 17.339844 5.667969 17.234375 5.625 17.113281 5.625 C 16.988281 5.625 16.886719 5.667969 16.796875 5.753906 C 16.710938 5.839844 16.667969 5.945312 16.667969 6.066406 L 16.667969 7.390625 L 12.683594 7.390625 C 12.390625 7.390625 12.109375 7.445312 11.839844 7.558594 C 11.566406 7.671875 11.328125 7.828125 11.121094 8.035156 C 10.914062 8.242188 10.753906 8.480469 10.640625 8.753906 C 10.527344 9.023438 10.472656 9.304688 10.472656 9.597656 L 10.472656 17.539062 C 10.472656 17.832031 10.527344 18.113281 10.640625 18.382812 C 10.753906 18.652344 10.914062 18.890625 11.121094 19.097656 C 11.328125 19.304688 11.566406 19.464844 11.839844 19.578125 C 12.109375 19.6875 12.390625 19.746094 12.683594 19.746094 L 15.105469 19.746094 L 16.742188 22.195312 C 16.785156 22.257812 16.835938 22.304688 16.902344 22.339844 C 16.96875 22.375 17.039062 22.390625 17.113281 22.390625 C 17.183594 22.390625 17.253906 22.375 17.320312 22.339844 C 17.386719 22.304688 17.4375 22.257812 17.480469 22.195312 L 19.117188 19.746094 L 21.539062 19.746094 C 21.832031 19.746094 22.113281 19.6875 22.382812 19.578125 C 22.65625 19.464844 22.894531 19.304688 23.101562 19.097656 C 23.308594 18.890625 23.46875 18.652344 23.582031 18.382812 C 23.695312 18.113281 23.75 17.832031 23.75 17.539062 L 23.75 9.597656 C 23.75 9.304688 23.695312 9.023438 23.582031 8.753906 C 23.46875 8.480469 23.308594 8.242188 23.101562 8.035156 C 22.894531 7.828125 22.65625 7.671875 22.382812 7.558594 C 22.113281 7.445312 21.832031 7.390625 21.539062 7.390625 Z M 22.867188 17.539062 C 22.863281 17.714844 22.832031 17.882812 22.765625 18.046875 C 22.695312 18.207031 22.601562 18.351562 22.476562 18.472656 C 22.351562 18.597656 22.207031 18.695312 22.046875 18.761719 C 21.882812 18.828125 21.714844 18.863281 21.539062 18.863281 L 18.882812 18.863281 C 18.722656 18.863281 18.601562 18.929688 18.511719 19.058594 L 17.113281 21.15625 L 15.710938 19.058594 C 15.621094 18.929688 15.5 18.863281 15.339844 18.863281 L 12.683594 18.863281 C 12.507812 18.863281 12.339844 18.828125 12.175781 18.761719 C 12.015625 18.695312 11.871094 18.597656 11.746094 18.472656 C 11.621094 18.351562 11.527344 18.207031 11.460938 18.046875 C 11.390625 17.882812 11.359375 17.714844 11.359375 17.539062 L 11.359375 16.214844 L 22.867188 16.214844 Z M 22.867188 15.332031 L 11.359375 15.332031 L 11.359375 9.597656 C 11.359375 9.421875 11.390625 9.25 11.460938 9.089844 C 11.527344 8.925781 11.621094 8.785156 11.746094 8.660156 C 11.871094 8.535156 12.015625 8.441406 12.175781 8.375 C 12.339844 8.304688 12.507812 8.273438 12.683594 8.273438 L 21.539062 8.273438 C 21.714844 8.273438 21.882812 8.304688 22.046875 8.375 C 22.207031 8.441406 22.351562 8.535156 22.476562 8.660156 C 22.601562 8.785156 22.695312 8.925781 22.765625 9.089844 C 22.832031 9.25 22.863281 9.421875 22.867188 9.597656 Z M 15.339844 12.242188 C 15.339844 12.488281 15.253906 12.695312 15.082031 12.867188 C 14.910156 13.039062 14.699219 13.125 14.457031 13.125 C 14.210938 13.125 14.003906 13.039062 13.828125 12.867188 C 13.65625 12.695312 13.570312 12.488281 13.570312 12.242188 C 13.570312 12 13.65625 11.792969 13.828125 11.621094 C 14.003906 11.445312 14.210938 11.359375 14.457031 11.359375 C 14.699219 11.359375 14.910156 11.445312 15.082031 11.621094 C 15.253906 11.792969 15.339844 12 15.339844 12.242188 Z M 20.652344 12.242188 C 20.652344 12.488281 20.566406 12.695312 20.394531 12.867188 C 20.21875 13.039062 20.011719 13.125 19.765625 13.125 C 19.523438 13.125 19.3125 13.039062 19.140625 12.867188 C 18.96875 12.695312 18.882812 12.488281 18.882812 12.242188 C 18.882812 12 18.96875 11.792969 19.140625 11.621094 C 19.3125 11.445312 19.523438 11.359375 19.765625 11.359375 C 20.011719 11.359375 20.21875 11.445312 20.394531 11.621094 C 20.566406 11.792969 20.652344 12 20.652344 12.242188 Z M 8.703125 10.480469 L 8.703125 14.007812 C 8.703125 14.128906 8.660156 14.234375 8.574219 14.320312 C 8.484375 14.40625 8.382812 14.449219 8.257812 14.449219 C 8.136719 14.449219 8.03125 14.40625 7.945312 14.320312 C 7.859375 14.234375 7.816406 14.128906 7.816406 14.007812 L 7.816406 10.480469 C 7.816406 10.355469 7.859375 10.253906 7.945312 10.167969 C 8.03125 10.082031 8.136719 10.039062 8.257812 10.039062 C 8.382812 10.039062 8.484375 10.082031 8.574219 10.167969 C 8.660156 10.253906 8.703125 10.355469 8.703125 10.480469 Z M 26.40625 10.480469 L 26.40625 14.007812 C 26.40625 14.128906 26.363281 14.234375 26.277344 14.320312 C 26.191406 14.40625 26.085938 14.449219 25.964844 14.449219 C 25.839844 14.449219 25.738281 14.40625 25.652344 14.320312 C 25.5625 14.234375 25.519531 14.128906 25.519531 14.007812 L 25.519531 10.480469 C 25.519531 10.355469 25.5625 10.253906 25.652344 10.167969 C 25.738281 10.082031 25.839844 10.039062 25.964844 10.039062 C 26.085938 10.039062 26.191406 10.082031 26.277344 10.167969 C 26.363281 10.253906 26.40625 10.355469 26.40625 10.480469 Z M 26.40625 10.480469 " fill-opacity="1" fill-rule="nonzero"/></g><g fill="#4e6bff" fill-opacity="1"><g transform="translate(43.18357, 18.446445)"><g><path d="M 4.28125 -10.265625 L 6.125 -10.265625 L 6.125 -8.109375 L 4.28125 -8.109375 L 4.28125 -3.59375 C 4.28125 -3.15625 4.296875 -2.828125 4.328125 -2.609375 C 4.359375 -2.398438 4.425781 -2.25 4.53125 -2.15625 C 4.644531 -2.0625 4.8125 -2.015625 5.03125 -2.015625 C 5.3125 -2.015625 5.675781 -2.101562 6.125 -2.28125 L 6.359375 -0.171875 C 6.078125 -0.046875 5.738281 0.0507812 5.34375 0.125 C 4.945312 0.195312 4.570312 0.234375 4.21875 0.234375 C 3.707031 0.234375 3.253906 0.148438 2.859375 -0.015625 C 2.460938 -0.191406 2.171875 -0.425781 1.984375 -0.71875 C 1.785156 -1.039062 1.660156 -1.40625 1.609375 -1.8125 C 1.566406 -2.21875 1.546875 -2.722656 1.546875 -3.328125 L 1.546875 -8.109375 L 0.296875 -8.109375 L 0.296875 -10.265625 L 1.546875 -10.265625 L 1.546875 -12.296875 L 4.28125 -13.90625 Z M 4.28125 -10.265625 "/></g></g></g><g fill="#4e6bff" fill-opacity="1"><g transform="translate(49.781026, 18.446445)"><g><path d="M 5.34375 -10.5 C 6.988281 -10.5 8.210938 -9.96875 9.015625 -8.90625 C 9.816406 -7.84375 10.21875 -6.328125 10.21875 -4.359375 L 3.40625 -4.359375 C 3.4375 -3.671875 3.640625 -3.078125 4.015625 -2.578125 C 4.390625 -2.085938 4.929688 -1.84375 5.640625 -1.84375 C 6.085938 -1.84375 6.453125 -1.957031 6.734375 -2.1875 C 7.023438 -2.414062 7.238281 -2.773438 7.375 -3.265625 L 10.078125 -2.8125 C 9.734375 -1.8125 9.175781 -1.050781 8.40625 -0.53125 C 7.644531 -0.0195312 6.710938 0.234375 5.609375 0.234375 C 3.953125 0.234375 2.703125 -0.257812 1.859375 -1.25 C 1.460938 -1.707031 1.160156 -2.285156 0.953125 -2.984375 C 0.742188 -3.691406 0.640625 -4.390625 0.640625 -5.078125 C 0.640625 -6.015625 0.804688 -6.894531 1.140625 -7.71875 C 1.472656 -8.539062 1.992188 -9.207031 2.703125 -9.71875 C 3.410156 -10.238281 4.289062 -10.5 5.34375 -10.5 Z M 3.46875 -6.015625 L 7.53125 -6.015625 C 7.519531 -6.847656 7.3125 -7.457031 6.90625 -7.84375 C 6.5 -8.226562 6.023438 -8.421875 5.484375 -8.421875 C 4.847656 -8.421875 4.351562 -8.191406 4 -7.734375 C 3.644531 -7.273438 3.46875 -6.703125 3.46875 -6.015625 Z M 3.46875 -6.015625 "/></g></g></g><g fill="#4e6bff" fill-opacity="1"><g transform="translate(60.796603, 18.446445)"><g><path d="M 5.34375 -10.5 C 6.988281 -10.5 8.210938 -9.96875 9.015625 -8.90625 C 9.816406 -7.84375 10.21875 -6.328125 10.21875 -4.359375 L 3.40625 -4.359375 C 3.4375 -3.671875 3.640625 -3.078125 4.015625 -2.578125 C 4.390625 -2.085938 4.929688 -1.84375 5.640625 -1.84375 C 6.085938 -1.84375 6.453125 -1.957031 6.734375 -2.1875 C 7.023438 -2.414062 7.238281 -2.773438 7.375 -3.265625 L 10.078125 -2.8125 C 9.734375 -1.8125 9.175781 -1.050781 8.40625 -0.53125 C 7.644531 -0.0195312 6.710938 0.234375 5.609375 0.234375 C 3.953125 0.234375 2.703125 -0.257812 1.859375 -1.25 C 1.460938 -1.707031 1.160156 -2.285156 0.953125 -2.984375 C 0.742188 -3.691406 0.640625 -4.390625 0.640625 -5.078125 C 0.640625 -6.015625 0.804688 -6.894531 1.140625 -7.71875 C 1.472656 -8.539062 1.992188 -9.207031 2.703125 -9.71875 C 3.410156 -10.238281 4.289062 -10.5 5.34375 -10.5 Z M 3.46875 -6.015625 L 7.53125 -6.015625 C 7.519531 -6.847656 7.3125 -7.457031 6.90625 -7.84375 C 6.5 -8.226562 6.023438 -8.421875 5.484375 -8.421875 C 4.847656 -8.421875 4.351562 -8.191406 4 -7.734375 C 3.644531 -7.273438 3.46875 -6.703125 3.46875 -6.015625 Z M 3.46875 -6.015625 "/></g></g></g><g fill="#4e6bff" fill-opacity="1"><g transform="translate(71.81218, 18.446445)"><g><path d="M 6.4375 -3.78125 L 1.109375 -3.78125 L 1.109375 -6.5 L 6.4375 -6.5 Z M 6.4375 -3.78125 "/></g></g></g><g fill="#4e6bff" fill-opacity="1"><g transform="translate(78.409636, 18.446445)"><g><path d="M 5.421875 -10.5 C 6.734375 -10.5 7.707031 -10.328125 8.34375 -9.984375 C 8.976562 -9.648438 9.375 -9.207031 9.53125 -8.65625 C 9.695312 -8.113281 9.773438 -7.394531 9.765625 -6.5 L 9.75 -3.5 C 9.738281 -2.5625 9.769531 -1.878906 9.84375 -1.453125 C 9.925781 -1.035156 10.09375 -0.550781 10.34375 0 L 7.671875 0 C 7.597656 -0.144531 7.476562 -0.519531 7.3125 -1.125 C 6.820312 -0.65625 6.316406 -0.3125 5.796875 -0.09375 C 5.273438 0.125 4.71875 0.234375 4.125 0.234375 C 3.101562 0.234375 2.28125 -0.046875 1.65625 -0.609375 C 1.03125 -1.171875 0.71875 -1.898438 0.71875 -2.796875 C 0.71875 -3.546875 0.90625 -4.140625 1.28125 -4.578125 C 1.65625 -5.023438 2.113281 -5.347656 2.65625 -5.546875 C 3.195312 -5.742188 3.835938 -5.914062 4.578125 -6.0625 C 5.710938 -6.269531 6.550781 -6.484375 7.09375 -6.703125 L 7.09375 -7.125 C 7.09375 -7.582031 6.957031 -7.910156 6.6875 -8.109375 C 6.425781 -8.316406 5.945312 -8.421875 5.25 -8.421875 C 4.707031 -8.421875 4.300781 -8.3125 4.03125 -8.09375 C 3.769531 -7.875 3.578125 -7.550781 3.453125 -7.125 L 0.984375 -7.59375 C 1.253906 -8.59375 1.734375 -9.328125 2.421875 -9.796875 C 3.109375 -10.265625 4.109375 -10.5 5.421875 -10.5 Z M 5.390625 -4.5 L 4.9375 -4.390625 C 3.925781 -4.179688 3.421875 -3.75 3.421875 -3.09375 C 3.421875 -2.695312 3.5625 -2.363281 3.84375 -2.09375 C 4.132812 -1.820312 4.5 -1.6875 4.9375 -1.6875 C 5.289062 -1.6875 5.644531 -1.773438 6 -1.953125 C 6.351562 -2.140625 6.628906 -2.382812 6.828125 -2.6875 C 7.003906 -2.96875 7.09375 -3.445312 7.09375 -4.125 L 7.09375 -4.9375 C 6.570312 -4.78125 6.003906 -4.632812 5.390625 -4.5 Z M 5.390625 -4.5 "/></g></g></g><g fill="#4e6bff" fill-opacity="1"><g transform="translate(89.425213, 18.446445)"><g><path d="M 6.9375 -10.5 C 8.269531 -10.5 9.238281 -9.957031 9.84375 -8.875 C 10.726562 -9.957031 11.773438 -10.5 12.984375 -10.5 C 14.117188 -10.5 14.960938 -10.1875 15.515625 -9.5625 C 16.066406 -8.945312 16.34375 -8.019531 16.34375 -6.78125 L 16.34375 0 L 13.625 0 L 13.625 -6.140625 C 13.625 -6.878906 13.53125 -7.441406 13.34375 -7.828125 C 13.15625 -8.222656 12.769531 -8.421875 12.1875 -8.421875 C 11.632812 -8.421875 11.1875 -8.226562 10.84375 -7.84375 C 10.507812 -7.457031 10.300781 -6.960938 10.21875 -6.359375 C 10.164062 -5.878906 10.140625 -5.457031 10.140625 -5.09375 L 10.140625 0 L 7.4375 0 L 7.4375 -6.046875 C 7.4375 -6.878906 7.34375 -7.484375 7.15625 -7.859375 C 6.976562 -8.234375 6.597656 -8.421875 6.015625 -8.421875 C 5.597656 -8.421875 5.21875 -8.304688 4.875 -8.078125 C 4.539062 -7.859375 4.3125 -7.550781 4.1875 -7.15625 C 4.019531 -6.675781 3.9375 -6.007812 3.9375 -5.15625 L 3.9375 0 L 1.234375 0 L 1.234375 -10.265625 L 3.75 -10.265625 L 3.78125 -8.875 C 4.207031 -9.394531 4.65625 -9.796875 5.125 -10.078125 C 5.59375 -10.359375 6.195312 -10.5 6.9375 -10.5 Z M 6.9375 -10.5 "/></g></g></g><g fill="#4e6bff" fill-opacity="1"><g transform="translate(107.038246, 18.446445)"><g><path d="M 6.4375 -3.78125 L 1.109375 -3.78125 L 1.109375 -6.5 L 6.4375 -6.5 Z M 6.4375 -3.78125 "/></g></g></g><g fill="#4e6bff" fill-opacity="1"><g transform="translate(113.635702, 18.446445)"><g><path d="M 5.421875 -10.5 C 6.734375 -10.5 7.707031 -10.328125 8.34375 -9.984375 C 8.976562 -9.648438 9.375 -9.207031 9.53125 -8.65625 C 9.695312 -8.113281 9.773438 -7.394531 9.765625 -6.5 L 9.75 -3.5 C 9.738281 -2.5625 9.769531 -1.878906 9.84375 -1.453125 C 9.925781 -1.035156 10.09375 -0.550781 10.34375 0 L 7.671875 0 C 7.597656 -0.144531 7.476562 -0.519531 7.3125 -1.125 C 6.820312 -0.65625 6.316406 -0.3125 5.796875 -0.09375 C 5.273438 0.125 4.71875 0.234375 4.125 0.234375 C 3.101562 0.234375 2.28125 -0.046875 1.65625 -0.609375 C 1.03125 -1.171875 0.71875 -1.898438 0.71875 -2.796875 C 0.71875 -3.546875 0.90625 -4.140625 1.28125 -4.578125 C 1.65625 -5.023438 2.113281 -5.347656 2.65625 -5.546875 C 3.195312 -5.742188 3.835938 -5.914062 4.578125 -6.0625 C 5.710938 -6.269531 6.550781 -6.484375 7.09375 -6.703125 L 7.09375 -7.125 C 7.09375 -7.582031 6.957031 -7.910156 6.6875 -8.109375 C 6.425781 -8.316406 5.945312 -8.421875 5.25 -8.421875 C 4.707031 -8.421875 4.300781 -8.3125 4.03125 -8.09375 C 3.769531 -7.875 3.578125 -7.550781 3.453125 -7.125 L 0.984375 -7.59375 C 1.253906 -8.59375 1.734375 -9.328125 2.421875 -9.796875 C 3.109375 -10.265625 4.109375 -10.5 5.421875 -10.5 Z M 5.390625 -4.5 L 4.9375 -4.390625 C 3.925781 -4.179688 3.421875 -3.75 3.421875 -3.09375 C 3.421875 -2.695312 3.5625 -2.363281 3.84375 -2.09375 C 4.132812 -1.820312 4.5 -1.6875 4.9375 -1.6875 C 5.289062 -1.6875 5.644531 -1.773438 6 -1.953125 C 6.351562 -2.140625 6.628906 -2.382812 6.828125 -2.6875 C 7.003906 -2.96875 7.09375 -3.445312 7.09375 -4.125 L 7.09375 -4.9375 C 6.570312 -4.78125 6.003906 -4.632812 5.390625 -4.5 Z M 5.390625 -4.5 "/></g></g></g><g fill="#4e6bff" fill-opacity="1"><g transform="translate(124.651279, 18.446445)"><g><path d="M 4.140625 -11.671875 L 1.421875 -11.671875 L 1.421875 -14.1875 L 4.140625 -14.1875 Z M 4.140625 0 L 1.421875 0 L 1.421875 -10.265625 L 4.140625 -10.265625 Z M 4.140625 0 "/></g></g></g></svg>